<svg height="6990" width="720" xmlns="http://www.w3.org/2000/svg">
<rect height="6990" fill="#555" width="720"></rect>
<text fill="#7f7" font-family="Courier New" font-size="12" xml:space="preserve">
<tspan x="10" y="26">39 megabytes installed</tspan>
<tspan x="10" y="42"></tspan>
<tspan x="10" y="58">node_modules</tspan>
<tspan x="10" y="74">└─┬ gulp-documentation@3.2.0 </tspan>
<tspan x="10" y="90">  ├─┬ documentation@4.0.0-beta.18 </tspan>
<tspan x="10" y="106">  │ ├── ansi-html@0.0.6 </tspan>
<tspan x="10" y="122">  │ ├─┬ babel-core@6.24.1 </tspan>
<tspan x="10" y="138">  │ │ ├─┬ babel-code-frame@6.22.0 </tspan>
<tspan x="10" y="154">  │ │ │ └── js-tokens@3.0.1 </tspan>
<tspan x="10" y="170">  │ │ ├─┬ babel-generator@6.24.1 </tspan>
<tspan x="10" y="186">  │ │ │ └── trim-right@1.0.1 </tspan>
<tspan x="10" y="202">  │ │ ├── babel-helpers@6.24.1 </tspan>
<tspan x="10" y="218">  │ │ ├── babel-messages@6.23.0 </tspan>
<tspan x="10" y="234">  │ │ ├─┬ babel-register@6.24.1 </tspan>
<tspan x="10" y="250">  │ │ │ ├── core-js@2.4.1 </tspan>
<tspan x="10" y="266">  │ │ │ ├─┬ home-or-tmp@2.0.0 </tspan>
<tspan x="10" y="282">  │ │ │ │ ├── os-homedir@1.0.2 </tspan>
<tspan x="10" y="298">  │ │ │ │ └── os-tmpdir@1.0.2 </tspan>
<tspan x="10" y="314">  │ │ │ └── source-map-support@0.4.14 </tspan>
<tspan x="10" y="330">  │ │ ├─┬ babel-runtime@6.23.0 </tspan>
<tspan x="10" y="346">  │ │ │ └── regenerator-runtime@0.10.3 </tspan>
<tspan x="10" y="362">  │ │ ├── babel-template@6.24.1 </tspan>
<tspan x="10" y="378">  │ │ ├── convert-source-map@1.5.0 </tspan>
<tspan x="10" y="394">  │ │ ├─┬ debug@2.6.4 </tspan>
<tspan x="10" y="410">  │ │ │ └── ms@0.7.3 </tspan>
<tspan x="10" y="426">  │ │ ├── json5@0.5.1 </tspan>
<tspan x="10" y="442">  │ │ ├─┬ minimatch@3.0.3 </tspan>
<tspan x="10" y="458">  │ │ │ └─┬ brace-expansion@1.1.7 </tspan>
<tspan x="10" y="474">  │ │ │   ├── balanced-match@0.4.2 </tspan>
<tspan x="10" y="490">  │ │ │   └── concat-map@0.0.1 </tspan>
<tspan x="10" y="506">  │ │ ├── path-is-absolute@1.0.1 </tspan>
<tspan x="10" y="522">  │ │ ├── private@0.1.7 </tspan>
<tspan x="10" y="538">  │ │ ├── slash@1.0.0 </tspan>
<tspan x="10" y="554">  │ │ └── source-map@0.5.6 </tspan>
<tspan x="10" y="570">  │ ├─┬ babel-generator@6.19.0 </tspan>
<tspan x="10" y="586">  │ │ ├─┬ detect-indent@4.0.0 </tspan>
<tspan x="10" y="602">  │ │ │ └─┬ repeating@2.0.1 </tspan>
<tspan x="10" y="618">  │ │ │   └── is-finite@1.0.2 </tspan>
<tspan x="10" y="634">  │ │ └── jsesc@1.3.0 </tspan>
<tspan x="10" y="650">  │ ├── babel-plugin-system-import-transformer@2.4.0 </tspan>
<tspan x="10" y="666">  │ ├─┬ babel-plugin-transform-decorators-legacy@1.3.4 </tspan>
<tspan x="10" y="682">  │ │ └── babel-plugin-syntax-decorators@6.13.0 </tspan>
<tspan x="10" y="698">  │ ├─┬ babel-preset-es2015@6.24.1 </tspan>
<tspan x="10" y="714">  │ │ ├── babel-plugin-check-es2015-constants@6.22.0 </tspan>
<tspan x="10" y="730">  │ │ ├── babel-plugin-transform-es2015-arrow-functions@6.22.0 </tspan>
<tspan x="10" y="746">  │ │ ├── babel-plugin-transform-es2015-block-scoped-functions@6.22.0 </tspan>
<tspan x="10" y="762">  │ │ ├── babel-plugin-transform-es2015-block-scoping@6.24.1 </tspan>
<tspan x="10" y="778">  │ │ ├─┬ babel-plugin-transform-es2015-classes@6.24.1 </tspan>
<tspan x="10" y="794">  │ │ │ ├── babel-helper-define-map@6.24.1 </tspan>
<tspan x="10" y="810">  │ │ │ ├── babel-helper-function-name@6.24.1 </tspan>
<tspan x="10" y="826">  │ │ │ ├── babel-helper-optimise-call-expression@6.24.1 </tspan>
<tspan x="10" y="842">  │ │ │ └── babel-helper-replace-supers@6.24.1 </tspan>
<tspan x="10" y="858">  │ │ ├── babel-plugin-transform-es2015-computed-properties@6.24.1 </tspan>
<tspan x="10" y="874">  │ │ ├── babel-plugin-transform-es2015-destructuring@6.23.0 </tspan>
<tspan x="10" y="890">  │ │ ├── babel-plugin-transform-es2015-duplicate-keys@6.24.1 </tspan>
<tspan x="10" y="906">  │ │ ├── babel-plugin-transform-es2015-for-of@6.23.0 </tspan>
<tspan x="10" y="922">  │ │ ├── babel-plugin-transform-es2015-function-name@6.24.1 </tspan>
<tspan x="10" y="938">  │ │ ├── babel-plugin-transform-es2015-literals@6.22.0 </tspan>
<tspan x="10" y="954">  │ │ ├── babel-plugin-transform-es2015-modules-amd@6.24.1 </tspan>
<tspan x="10" y="970">  │ │ ├─┬ babel-plugin-transform-es2015-modules-commonjs@6.24.1 </tspan>
<tspan x="10" y="986">  │ │ │ └── babel-plugin-transform-strict-mode@6.24.1 </tspan>
<tspan x="10" y="1002">  │ │ ├─┬ babel-plugin-transform-es2015-modules-systemjs@6.24.1 </tspan>
<tspan x="10" y="1018">  │ │ │ └── babel-helper-hoist-variables@6.24.1 </tspan>
<tspan x="10" y="1034">  │ │ ├── babel-plugin-transform-es2015-modules-umd@6.24.1 </tspan>
<tspan x="10" y="1050">  │ │ ├── babel-plugin-transform-es2015-object-super@6.24.1 </tspan>
<tspan x="10" y="1066">  │ │ ├─┬ babel-plugin-transform-es2015-parameters@6.24.1 </tspan>
<tspan x="10" y="1082">  │ │ │ ├── babel-helper-call-delegate@6.24.1 </tspan>
<tspan x="10" y="1098">  │ │ │ └── babel-helper-get-function-arity@6.24.1 </tspan>
<tspan x="10" y="1114">  │ │ ├── babel-plugin-transform-es2015-shorthand-properties@6.24.1 </tspan>
<tspan x="10" y="1130">  │ │ ├── babel-plugin-transform-es2015-spread@6.22.0 </tspan>
<tspan x="10" y="1146">  │ │ ├─┬ babel-plugin-transform-es2015-sticky-regex@6.24.1 </tspan>
<tspan x="10" y="1162">  │ │ │ └── babel-helper-regex@6.24.1 </tspan>
<tspan x="10" y="1178">  │ │ ├── babel-plugin-transform-es2015-template-literals@6.22.0 </tspan>
<tspan x="10" y="1194">  │ │ ├── babel-plugin-transform-es2015-typeof-symbol@6.23.0 </tspan>
<tspan x="10" y="1210">  │ │ ├─┬ babel-plugin-transform-es2015-unicode-regex@6.24.1 </tspan>
<tspan x="10" y="1226">  │ │ │ └─┬ regexpu-core@2.0.0 </tspan>
<tspan x="10" y="1242">  │ │ │   ├── regenerate@1.3.2 </tspan>
<tspan x="10" y="1258">  │ │ │   ├── regjsgen@0.2.0 </tspan>
<tspan x="10" y="1274">  │ │ │   └─┬ regjsparser@0.1.5 </tspan>
<tspan x="10" y="1290">  │ │ │     └── jsesc@0.5.0 </tspan>
<tspan x="10" y="1306">  │ │ └─┬ babel-plugin-transform-regenerator@6.24.1 </tspan>
<tspan x="10" y="1322">  │ │   └── regenerator-transform@0.9.11 </tspan>
<tspan x="10" y="1338">  │ ├─┬ babel-preset-react@6.24.1 </tspan>
<tspan x="10" y="1354">  │ │ ├── babel-plugin-syntax-jsx@6.18.0 </tspan>
<tspan x="10" y="1370">  │ │ ├── babel-plugin-transform-react-display-name@6.23.0 </tspan>
<tspan x="10" y="1386">  │ │ ├─┬ babel-plugin-transform-react-jsx@6.24.1 </tspan>
<tspan x="10" y="1402">  │ │ │ └── babel-helper-builder-react-jsx@6.24.1 </tspan>
<tspan x="10" y="1418">  │ │ ├── babel-plugin-transform-react-jsx-self@6.22.0 </tspan>
<tspan x="10" y="1434">  │ │ ├── babel-plugin-transform-react-jsx-source@6.22.0 </tspan>
<tspan x="10" y="1450">  │ │ └─┬ babel-preset-flow@6.23.0 </tspan>
<tspan x="10" y="1466">  │ │   └─┬ babel-plugin-transform-flow-strip-types@6.22.0 </tspan>
<tspan x="10" y="1482">  │ │     └── babel-plugin-syntax-flow@6.18.0 </tspan>
<tspan x="10" y="1498">  │ ├─┬ babel-preset-stage-0@6.24.1 </tspan>
<tspan x="10" y="1514">  │ │ ├─┬ babel-plugin-transform-do-expressions@6.22.0 </tspan>
<tspan x="10" y="1530">  │ │ │ └── babel-plugin-syntax-do-expressions@6.13.0 </tspan>
<tspan x="10" y="1546">  │ │ ├─┬ babel-plugin-transform-function-bind@6.22.0 </tspan>
<tspan x="10" y="1562">  │ │ │ └── babel-plugin-syntax-function-bind@6.13.0 </tspan>
<tspan x="10" y="1578">  │ │ └─┬ babel-preset-stage-1@6.24.1 </tspan>
<tspan x="10" y="1594">  │ │   ├─┬ babel-plugin-transform-class-constructor-call@6.24.1 </tspan>
<tspan x="10" y="1610">  │ │   │ └── babel-plugin-syntax-class-constructor-call@6.18.0 </tspan>
<tspan x="10" y="1626">  │ │   ├─┬ babel-plugin-transform-export-extensions@6.22.0 </tspan>
<tspan x="10" y="1642">  │ │   │ └── babel-plugin-syntax-export-extensions@6.13.0 </tspan>
<tspan x="10" y="1658">  │ │   └─┬ babel-preset-stage-2@6.24.1 </tspan>
<tspan x="10" y="1674">  │ │     ├── babel-plugin-syntax-dynamic-import@6.18.0 </tspan>
<tspan x="10" y="1690">  │ │     ├─┬ babel-plugin-transform-class-properties@6.24.1 </tspan>
<tspan x="10" y="1706">  │ │     │ └── babel-plugin-syntax-class-properties@6.13.0 </tspan>
<tspan x="10" y="1722">  │ │     ├─┬ babel-plugin-transform-decorators@6.24.1 </tspan>
<tspan x="10" y="1738">  │ │     │ └─┬ babel-helper-explode-class@6.24.1 </tspan>
<tspan x="10" y="1754">  │ │     │   └── babel-helper-bindify-decorators@6.24.1 </tspan>
<tspan x="10" y="1770">  │ │     └─┬ babel-preset-stage-3@6.24.1 </tspan>
<tspan x="10" y="1786">  │ │       ├── babel-plugin-syntax-trailing-function-commas@6.22.0 </tspan>
<tspan x="10" y="1802">  │ │       ├─┬ babel-plugin-transform-async-generator-functions@6.24.1 </tspan>
<tspan x="10" y="1818">  │ │       │ ├── babel-helper-remap-async-to-generator@6.24.1 </tspan>
<tspan x="10" y="1834">  │ │       │ └── babel-plugin-syntax-async-generators@6.13.0 </tspan>
<tspan x="10" y="1850">  │ │       ├─┬ babel-plugin-transform-async-to-generator@6.24.1 </tspan>
<tspan x="10" y="1866">  │ │       │ └── babel-plugin-syntax-async-functions@6.13.0 </tspan>
<tspan x="10" y="1882">  │ │       ├─┬ babel-plugin-transform-exponentiation-operator@6.24.1 </tspan>
<tspan x="10" y="1898">  │ │       │ ├─┬ babel-helper-builder-binary-assignment-operator-visitor@6.24.1 </tspan>
<tspan x="10" y="1914">  │ │       │ │ └── babel-helper-explode-assignable-expression@6.24.1 </tspan>
<tspan x="10" y="1930">  │ │       │ └── babel-plugin-syntax-exponentiation-operator@6.13.0 </tspan>
<tspan x="10" y="1946">  │ │       └─┬ babel-plugin-transform-object-rest-spread@6.23.0 </tspan>
<tspan x="10" y="1962">  │ │         └── babel-plugin-syntax-object-rest-spread@6.13.0 </tspan>
<tspan x="10" y="1978">  │ ├─┬ babel-traverse@6.24.1 </tspan>
<tspan x="10" y="1994">  │ │ ├── globals@9.17.0 </tspan>
<tspan x="10" y="2010">  │ │ └─┬ invariant@2.2.2 </tspan>
<tspan x="10" y="2026">  │ │   └── loose-envify@1.3.1 </tspan>
<tspan x="10" y="2042">  │ ├─┬ babel-types@6.24.1 </tspan>
<tspan x="10" y="2058">  │ │ ├── esutils@2.0.2 </tspan>
<tspan x="10" y="2074">  │ │ └── to-fast-properties@1.0.2 </tspan>
<tspan x="10" y="2090">  │ ├─┬ babelify@7.3.0 </tspan>
<tspan x="10" y="2106">  │ │ └── object-assign@4.1.1 </tspan>
<tspan x="10" y="2122">  │ ├── babylon@6.17.0 </tspan>
<tspan x="10" y="2138">  │ ├─┬ chalk@1.1.3 </tspan>
<tspan x="10" y="2154">  │ │ ├── ansi-styles@2.2.1 </tspan>
<tspan x="10" y="2170">  │ │ ├── escape-string-regexp@1.0.5 </tspan>
<tspan x="10" y="2186">  │ │ ├─┬ has-ansi@2.0.0 </tspan>
<tspan x="10" y="2202">  │ │ │ └── ansi-regex@2.1.1 </tspan>
<tspan x="10" y="2218">  │ │ ├── strip-ansi@3.0.1 </tspan>
<tspan x="10" y="2234">  │ │ └── supports-color@2.0.0 </tspan>
<tspan x="10" y="2250">  │ ├─┬ chokidar@1.6.1 </tspan>
<tspan x="10" y="2266">  │ │ ├─┬ anymatch@1.3.0 </tspan>
<tspan x="10" y="2282">  │ │ │ └── arrify@1.0.1 </tspan>
<tspan x="10" y="2298">  │ │ ├── async-each@1.0.1 </tspan>
<tspan x="10" y="2314">  │ │ ├── glob-parent@2.0.0 </tspan>
<tspan x="10" y="2330">  │ │ ├── inherits@2.0.3 </tspan>
<tspan x="10" y="2346">  │ │ ├─┬ is-binary-path@1.0.1 </tspan>
<tspan x="10" y="2362">  │ │ │ └── binary-extensions@1.8.0 </tspan>
<tspan x="10" y="2378">  │ │ ├── is-glob@2.0.1 </tspan>
<tspan x="10" y="2394">  │ │ └─┬ readdirp@2.1.0 </tspan>
<tspan x="10" y="2410">  │ │   └── set-immediate-shim@1.0.1 </tspan>
<tspan x="10" y="2426">  │ ├─┬ concat-stream@1.6.0 </tspan>
<tspan x="10" y="2442">  │ │ └── typedarray@0.0.6 </tspan>
<tspan x="10" y="2458">  │ ├── debounce@1.0.2 </tspan>
<tspan x="10" y="2474">  │ ├─┬ disparity@2.0.0 </tspan>
<tspan x="10" y="2490">  │ │ └── diff@1.4.0 </tspan>
<tspan x="10" y="2506">  │ ├─┬ doctrine@2.0.0 </tspan>
<tspan x="10" y="2522">  │ │ └── isarray@1.0.0 </tspan>
<tspan x="10" y="2538">  │ ├── extend@3.0.0 </tspan>
<tspan x="10" y="2554">  │ ├── get-comments@1.0.1 </tspan>
<tspan x="10" y="2570">  │ ├─┬ git-url-parse@6.2.2 </tspan>
<tspan x="10" y="2586">  │ │ └─┬ git-up@2.0.8 </tspan>
<tspan x="10" y="2602">  │ │   ├─┬ is-ssh@1.3.0 </tspan>
<tspan x="10" y="2618">  │ │   │ └── protocols@1.4.5 </tspan>
<tspan x="10" y="2634">  │ │   └── parse-url@1.3.7 </tspan>
<tspan x="10" y="2650">  │ ├─┬ github-slugger@1.1.1 </tspan>
<tspan x="10" y="2666">  │ │ └── emoji-regex@6.4.2 </tspan>
<tspan x="10" y="2682">  │ ├─┬ glob@7.1.1 </tspan>
<tspan x="10" y="2698">  │ │ ├── fs.realpath@1.0.0 </tspan>
<tspan x="10" y="2714">  │ │ ├─┬ inflight@1.0.6 </tspan>
<tspan x="10" y="2730">  │ │ │ └── wrappy@1.0.2 </tspan>
<tspan x="10" y="2746">  │ │ └── once@1.4.0 </tspan>
<tspan x="10" y="2762">  │ ├── globals-docs@2.3.0 </tspan>
<tspan x="10" y="2778">  │ ├── highlight.js@9.11.0 </tspan>
<tspan x="10" y="2794">  │ ├─┬ js-yaml@3.8.3 </tspan>
<tspan x="10" y="2810">  │ │ ├─┬ argparse@1.0.9 </tspan>
<tspan x="10" y="2826">  │ │ │ └── sprintf-js@1.0.3 </tspan>
<tspan x="10" y="2842">  │ │ └── esprima@3.1.3 </tspan>
<tspan x="10" y="2858">  │ ├── lodash@4.17.4 </tspan>
<tspan x="10" y="2874">  │ ├─┬ mdast-util-inject@1.1.0 </tspan>
<tspan x="10" y="2890">  │ │ └── mdast-util-to-string@1.0.2 </tspan>
<tspan x="10" y="2906">  │ ├─┬ micromatch@2.3.11 </tspan>
<tspan x="10" y="2922">  │ │ ├─┬ arr-diff@2.0.0 </tspan>
<tspan x="10" y="2938">  │ │ │ └── arr-flatten@1.0.3 </tspan>
<tspan x="10" y="2954">  │ │ ├── array-unique@0.2.1 </tspan>
<tspan x="10" y="2970">  │ │ ├─┬ braces@1.8.5 </tspan>
<tspan x="10" y="2986">  │ │ │ ├─┬ expand-range@1.8.2 </tspan>
<tspan x="10" y="3002">  │ │ │ │ └─┬ fill-range@2.2.3 </tspan>
<tspan x="10" y="3018">  │ │ │ │   ├── is-number@2.1.0 </tspan>
<tspan x="10" y="3034">  │ │ │ │   ├── isobject@2.1.0 </tspan>
<tspan x="10" y="3050">  │ │ │ │   └── randomatic@1.1.6 </tspan>
<tspan x="10" y="3066">  │ │ │ ├── preserve@0.2.0 </tspan>
<tspan x="10" y="3082">  │ │ │ └── repeat-element@1.1.2 </tspan>
<tspan x="10" y="3098">  │ │ ├─┬ expand-brackets@0.1.5 </tspan>
<tspan x="10" y="3114">  │ │ │ └── is-posix-bracket@0.1.1 </tspan>
<tspan x="10" y="3130">  │ │ ├── extglob@0.3.2 </tspan>
<tspan x="10" y="3146">  │ │ ├── filename-regex@2.0.0 </tspan>
<tspan x="10" y="3162">  │ │ ├── is-extglob@1.0.0 </tspan>
<tspan x="10" y="3178">  │ │ ├── kind-of@3.1.0 </tspan>
<tspan x="10" y="3194">  │ │ ├── normalize-path@2.1.1 </tspan>
<tspan x="10" y="3210">  │ │ ├─┬ object.omit@2.0.1 </tspan>
<tspan x="10" y="3226">  │ │ │ ├─┬ for-own@0.1.5 </tspan>
<tspan x="10" y="3242">  │ │ │ │ └── for-in@1.0.2 </tspan>
<tspan x="10" y="3258">  │ │ │ └── is-extendable@0.1.1 </tspan>
<tspan x="10" y="3274">  │ │ ├─┬ parse-glob@3.0.4 </tspan>
<tspan x="10" y="3290">  │ │ │ ├── glob-base@0.3.0 </tspan>
<tspan x="10" y="3306">  │ │ │ └── is-dotfile@1.0.2 </tspan>
<tspan x="10" y="3322">  │ │ └─┬ regex-cache@0.4.3 </tspan>
<tspan x="10" y="3338">  │ │   ├── is-equal-shallow@0.1.3 </tspan>
<tspan x="10" y="3354">  │ │   └── is-primitive@2.0.0 </tspan>
<tspan x="10" y="3370">  │ ├── mime@1.3.4 </tspan>
<tspan x="10" y="3386">  │ ├─┬ module-deps-sortable@4.0.6 </tspan>
<tspan x="10" y="3402">  │ │ ├─┬ browser-resolve@1.11.2 </tspan>
<tspan x="10" y="3418">  │ │ │ └── resolve@1.1.7 </tspan>
<tspan x="10" y="3434">  │ │ ├─┬ concat-stream@1.5.2 </tspan>
<tspan x="10" y="3450">  │ │ │ └─┬ readable-stream@2.0.6 </tspan>
<tspan x="10" y="3466">  │ │ │   └── string_decoder@0.10.31 </tspan>
<tspan x="10" y="3482">  │ │ ├── defined@1.0.0 </tspan>
<tspan x="10" y="3498">  │ │ ├─┬ detective@4.5.0 </tspan>
<tspan x="10" y="3514">  │ │ │ └── acorn@4.0.11 </tspan>
<tspan x="10" y="3530">  │ │ ├── duplexer2@0.1.4 </tspan>
<tspan x="10" y="3546">  │ │ ├─┬ JSONStream@1.3.1 </tspan>
<tspan x="10" y="3562">  │ │ │ ├── jsonparse@1.3.0 </tspan>
<tspan x="10" y="3578">  │ │ │ └── through@2.3.8 </tspan>
<tspan x="10" y="3594">  │ │ ├─┬ parents@1.0.1 </tspan>
<tspan x="10" y="3610">  │ │ │ └── path-platform@0.11.15 </tspan>
<tspan x="10" y="3626">  │ │ ├── stream-combiner2@1.1.1 </tspan>
<tspan x="10" y="3642">  │ │ └─┬ subarg@1.0.0 </tspan>
<tspan x="10" y="3658">  │ │   └── minimist@1.2.0 </tspan>
<tspan x="10" y="3674">  │ ├─┬ parse-filepath@0.6.3 </tspan>
<tspan x="10" y="3690">  │ │ ├─┬ is-absolute@0.2.6 </tspan>
<tspan x="10" y="3706">  │ │ │ ├─┬ is-relative@0.2.1 </tspan>
<tspan x="10" y="3722">  │ │ │ │ └─┬ is-unc-path@0.1.2 </tspan>
<tspan x="10" y="3738">  │ │ │ │   └── unc-path-regex@0.1.2 </tspan>
<tspan x="10" y="3754">  │ │ │ └── is-windows@0.2.0 </tspan>
<tspan x="10" y="3770">  │ │ └── map-cache@0.2.2 </tspan>
<tspan x="10" y="3786">  │ ├─┬ remark@6.2.0 </tspan>
<tspan x="10" y="3802">  │ │ ├─┬ load-plugin@2.1.0 </tspan>
<tspan x="10" y="3818">  │ │ │ ├─┬ npm-prefix@1.2.0 </tspan>
<tspan x="10" y="3834">  │ │ │ │ ├─┬ rc@1.2.1 </tspan>
<tspan x="10" y="3850">  │ │ │ │ │ ├── deep-extend@0.4.1 </tspan>
<tspan x="10" y="3866">  │ │ │ │ │ └── minimist@1.2.0 </tspan>
<tspan x="10" y="3882">  │ │ │ │ ├── shellsubstitute@1.2.0 </tspan>
<tspan x="10" y="3898">  │ │ │ │ └── untildify@2.1.0 </tspan>
<tspan x="10" y="3914">  │ │ │ └── resolve-from@2.0.0 </tspan>
<tspan x="10" y="3930">  │ │ ├─┬ remark-parse@2.3.0 </tspan>
<tspan x="10" y="3946">  │ │ │ ├── collapse-white-space@1.0.2 </tspan>
<tspan x="10" y="3962">  │ │ │ ├── is-alphabetical@1.0.0 </tspan>
<tspan x="10" y="3978">  │ │ │ ├── is-decimal@1.0.0 </tspan>
<tspan x="10" y="3994">  │ │ │ ├── is-whitespace-character@1.0.0 </tspan>
<tspan x="10" y="4010">  │ │ │ ├── is-word-character@1.0.0 </tspan>
<tspan x="10" y="4026">  │ │ │ ├── markdown-escapes@1.0.0 </tspan>
<tspan x="10" y="4042">  │ │ │ ├─┬ parse-entities@1.1.0 </tspan>
<tspan x="10" y="4058">  │ │ │ │ ├── character-entities@1.2.0 </tspan>
<tspan x="10" y="4074">  │ │ │ │ ├── character-entities-legacy@1.1.0 </tspan>
<tspan x="10" y="4090">  │ │ │ │ ├── character-reference-invalid@1.1.0 </tspan>
<tspan x="10" y="4106">  │ │ │ │ ├── is-alphanumerical@1.0.0 </tspan>
<tspan x="10" y="4122">  │ │ │ │ └── is-hexadecimal@1.0.0 </tspan>
<tspan x="10" y="4138">  │ │ │ ├── state-toggle@1.0.0 </tspan>
<tspan x="10" y="4154">  │ │ │ ├── trim-trailing-lines@1.1.0 </tspan>
<tspan x="10" y="4170">  │ │ │ ├── unherit@1.1.0 </tspan>
<tspan x="10" y="4186">  │ │ │ ├── unist-util-remove-position@1.1.0 </tspan>
<tspan x="10" y="4202">  │ │ │ └── vfile-location@2.0.1 </tspan>
<tspan x="10" y="4218">  │ │ ├─┬ remark-stringify@2.4.0 </tspan>
<tspan x="10" y="4234">  │ │ │ ├── ccount@1.0.1 </tspan>
<tspan x="10" y="4250">  │ │ │ ├── is-alphanumeric@1.0.0 </tspan>
<tspan x="10" y="4266">  │ │ │ ├── longest-streak@2.0.1 </tspan>
<tspan x="10" y="4282">  │ │ │ ├── markdown-table@1.1.0 </tspan>
<tspan x="10" y="4298">  │ │ │ ├─┬ mdast-util-compact@1.0.0 </tspan>
<tspan x="10" y="4314">  │ │ │ │ └─┬ unist-util-modify-children@1.1.0 </tspan>
<tspan x="10" y="4330">  │ │ │ │   └── array-iterate@1.1.0 </tspan>
<tspan x="10" y="4346">  │ │ │ └─┬ stringify-entities@1.3.0 </tspan>
<tspan x="10" y="4362">  │ │ │   └── character-entities-html4@1.1.0 </tspan>
<tspan x="10" y="4378">  │ │ └─┬ unified@5.1.0 </tspan>
<tspan x="10" y="4394">  │ │   ├── bail@1.0.1 </tspan>
<tspan x="10" y="4410">  │ │   └── trough@1.0.0 </tspan>
<tspan x="10" y="4426">  │ ├─┬ remark-html@5.0.1 </tspan>
<tspan x="10" y="4442">  │ │ ├── hast-util-sanitize@1.1.0 </tspan>
<tspan x="10" y="4458">  │ │ ├─┬ hast-util-to-html@2.1.0 </tspan>
<tspan x="10" y="4474">  │ │ │ ├── comma-separated-tokens@1.0.3 </tspan>
<tspan x="10" y="4490">  │ │ │ ├── hast-util-is-element@1.0.0 </tspan>
<tspan x="10" y="4506">  │ │ │ ├── hast-util-whitespace@1.0.0 </tspan>
<tspan x="10" y="4522">  │ │ │ ├── html-void-elements@1.0.1 </tspan>
<tspan x="10" y="4538">  │ │ │ ├── kebab-case@1.0.0 </tspan>
<tspan x="10" y="4554">  │ │ │ ├── property-information@3.1.0 </tspan>
<tspan x="10" y="4570">  │ │ │ ├── space-separated-tokens@1.1.0 </tspan>
<tspan x="10" y="4586">  │ │ │ └── unist-util-is@2.0.0 </tspan>
<tspan x="10" y="4602">  │ │ └─┬ mdast-util-to-hast@1.0.0 </tspan>
<tspan x="10" y="4618">  │ │   ├── detab@1.0.2 </tspan>
<tspan x="10" y="4634">  │ │   ├── mdast-util-definitions@1.2.0 </tspan>
<tspan x="10" y="4650">  │ │   ├── normalize-uri@1.1.0 </tspan>
<tspan x="10" y="4666">  │ │   ├── trim-lines@1.1.0 </tspan>
<tspan x="10" y="4682">  │ │   └── unist-util-position@2.0.1 </tspan>
<tspan x="10" y="4698">  │ ├─┬ remark-toc@3.1.0 </tspan>
<tspan x="10" y="4714">  │ │ ├── mdast-util-toc@2.0.1 </tspan>
<tspan x="10" y="4730">  │ │ └── remark-slug@4.2.2 </tspan>
<tspan x="10" y="4746">  │ ├─┬ remote-origin-url@0.4.0 </tspan>
<tspan x="10" y="4762">  │ │ └─┬ parse-git-config@0.2.0 </tspan>
<tspan x="10" y="4778">  │ │   └── ini@1.3.4 </tspan>
<tspan x="10" y="4794">  │ ├─┬ resolve@1.3.3 </tspan>
<tspan x="10" y="4810">  │ │ └── path-parse@1.0.5 </tspan>
<tspan x="10" y="4826">  │ ├─┬ shelljs@0.7.7 </tspan>
<tspan x="10" y="4842">  │ │ ├── interpret@1.0.3 </tspan>
<tspan x="10" y="4858">  │ │ └── rechoir@0.6.2 </tspan>
<tspan x="10" y="4874">  │ ├─┬ stream-array@1.1.2 </tspan>
<tspan x="10" y="4890">  │ │ └─┬ readable-stream@2.1.5 </tspan>
<tspan x="10" y="4906">  │ │   └── string_decoder@0.10.31 </tspan>
<tspan x="10" y="4922">  │ ├── strip-json-comments@2.0.1 </tspan>
<tspan x="10" y="4938">  │ ├─┬ tiny-lr@1.0.3 </tspan>
<tspan x="10" y="4954">  │ │ ├─┬ body@5.1.0 </tspan>
<tspan x="10" y="4970">  │ │ │ ├── continuable-cache@0.3.1 </tspan>
<tspan x="10" y="4986">  │ │ │ ├─┬ error@7.0.2 </tspan>
<tspan x="10" y="5002">  │ │ │ │ └── string-template@0.2.1 </tspan>
<tspan x="10" y="5018">  │ │ │ ├─┬ raw-body@1.1.7 </tspan>
<tspan x="10" y="5034">  │ │ │ │ ├── bytes@1.0.0 </tspan>
<tspan x="10" y="5050">  │ │ │ │ └── string_decoder@0.10.31 </tspan>
<tspan x="10" y="5066">  │ │ │ └── safe-json-parse@1.0.1 </tspan>
<tspan x="10" y="5082">  │ │ ├─┬ debug@2.2.0 </tspan>
<tspan x="10" y="5098">  │ │ │ └── ms@0.7.1 </tspan>
<tspan x="10" y="5114">  │ │ ├─┬ faye-websocket@0.10.0 </tspan>
<tspan x="10" y="5130">  │ │ │ └─┬ websocket-driver@0.6.5 </tspan>
<tspan x="10" y="5146">  │ │ │   └── websocket-extensions@0.1.1 </tspan>
<tspan x="10" y="5162">  │ │ ├── livereload-js@2.2.2 </tspan>
<tspan x="10" y="5178">  │ │ └── qs@6.4.0 </tspan>
<tspan x="10" y="5194">  │ ├── unist-builder@1.0.2 </tspan>
<tspan x="10" y="5210">  │ ├── unist-util-visit@1.1.1 </tspan>
<tspan x="10" y="5226">  │ ├─┬ vfile@2.0.1 </tspan>
<tspan x="10" y="5242">  │ │ ├─┬ has@1.0.1 </tspan>
<tspan x="10" y="5258">  │ │ │ └── function-bind@1.1.0 </tspan>
<tspan x="10" y="5274">  │ │ ├── is-buffer@1.1.5 </tspan>
<tspan x="10" y="5290">  │ │ ├── unist-util-stringify-position@1.1.0 </tspan>
<tspan x="10" y="5306">  │ │ └── x-is-string@0.1.0 </tspan>
<tspan x="10" y="5322">  │ ├─┬ vfile-reporter@3.0.0 </tspan>
<tspan x="10" y="5338">  │ │ ├── log-symbols@1.0.2 </tspan>
<tspan x="10" y="5354">  │ │ ├─┬ plur@2.1.2 </tspan>
<tspan x="10" y="5370">  │ │ │ └── irregular-plurals@1.2.0 </tspan>
<tspan x="10" y="5386">  │ │ ├── repeat-string@1.6.1 </tspan>
<tspan x="10" y="5402">  │ │ ├─┬ string-width@1.0.2 </tspan>
<tspan x="10" y="5418">  │ │ │ ├── code-point-at@1.1.0 </tspan>
<tspan x="10" y="5434">  │ │ │ └─┬ is-fullwidth-code-point@1.0.0 </tspan>
<tspan x="10" y="5450">  │ │ │   └── number-is-nan@1.0.1 </tspan>
<tspan x="10" y="5466">  │ │ └── trim@0.0.1 </tspan>
<tspan x="10" y="5482">  │ ├── vfile-sort@2.0.0 </tspan>
<tspan x="10" y="5498">  │ ├─┬ vinyl-fs@2.4.4 </tspan>
<tspan x="10" y="5514">  │ │ ├─┬ duplexify@3.5.0 </tspan>
<tspan x="10" y="5530">  │ │ │ ├─┬ end-of-stream@1.0.0 </tspan>
<tspan x="10" y="5546">  │ │ │ │ └── once@1.3.3 </tspan>
<tspan x="10" y="5562">  │ │ │ └── stream-shift@1.0.0 </tspan>
<tspan x="10" y="5578">  │ │ ├─┬ glob-stream@5.3.5 </tspan>
<tspan x="10" y="5594">  │ │ │ ├── glob@5.0.15 </tspan>
<tspan x="10" y="5610">  │ │ │ ├─┬ glob-parent@3.1.0 </tspan>
<tspan x="10" y="5626">  │ │ │ │ ├─┬ is-glob@3.1.0 </tspan>
<tspan x="10" y="5642">  │ │ │ │ │ └── is-extglob@2.1.1 </tspan>
<tspan x="10" y="5658">  │ │ │ │ └── path-dirname@1.0.2 </tspan>
<tspan x="10" y="5674">  │ │ │ ├── ordered-read-streams@0.3.0 </tspan>
<tspan x="10" y="5690">  │ │ │ ├─┬ through2@0.6.5 </tspan>
<tspan x="10" y="5706">  │ │ │ │ └─┬ readable-stream@1.0.34 </tspan>
<tspan x="10" y="5722">  │ │ │ │   ├── isarray@0.0.1 </tspan>
<tspan x="10" y="5738">  │ │ │ │   └── string_decoder@0.10.31 </tspan>
<tspan x="10" y="5754">  │ │ │ ├─┬ to-absolute-glob@0.1.1 </tspan>
<tspan x="10" y="5770">  │ │ │ │ └── extend-shallow@2.0.1 </tspan>
<tspan x="10" y="5786">  │ │ │ └─┬ unique-stream@2.2.1 </tspan>
<tspan x="10" y="5802">  │ │ │   └─┬ json-stable-stringify@1.0.1 </tspan>
<tspan x="10" y="5818">  │ │ │     └── jsonify@0.0.0 </tspan>
<tspan x="10" y="5834">  │ │ ├── graceful-fs@4.1.11 </tspan>
<tspan x="10" y="5850">  │ │ ├─┬ gulp-sourcemaps@1.6.0 </tspan>
<tspan x="10" y="5866">  │ │ │ └─┬ vinyl@1.2.0 </tspan>
<tspan x="10" y="5882">  │ │ │   ├── clone-stats@0.0.1 </tspan>
<tspan x="10" y="5898">  │ │ │   └── replace-ext@0.0.1 </tspan>
<tspan x="10" y="5914">  │ │ ├── is-valid-glob@0.3.0 </tspan>
<tspan x="10" y="5930">  │ │ ├── lazystream@1.0.0 </tspan>
<tspan x="10" y="5946">  │ │ ├── lodash.isequal@4.5.0 </tspan>
<tspan x="10" y="5962">  │ │ ├── merge-stream@1.0.1 </tspan>
<tspan x="10" y="5978">  │ │ ├─┬ mkdirp@0.5.1 </tspan>
<tspan x="10" y="5994">  │ │ │ └── minimist@0.0.8 </tspan>
<tspan x="10" y="6010">  │ │ ├─┬ strip-bom@2.0.0 </tspan>
<tspan x="10" y="6026">  │ │ │ └── is-utf8@0.2.1 </tspan>
<tspan x="10" y="6042">  │ │ ├─┬ strip-bom-stream@1.0.0 </tspan>
<tspan x="10" y="6058">  │ │ │ └── first-chunk-stream@1.0.0 </tspan>
<tspan x="10" y="6074">  │ │ ├── through2-filter@2.0.0 </tspan>
<tspan x="10" y="6090">  │ │ ├── vali-date@1.0.0 </tspan>
<tspan x="10" y="6106">  │ │ └─┬ vinyl@1.2.0 </tspan>
<tspan x="10" y="6122">  │ │   ├── clone-stats@0.0.1 </tspan>
<tspan x="10" y="6138">  │ │   └── replace-ext@0.0.1 </tspan>
<tspan x="10" y="6154">  │ └─┬ yargs@6.6.0 </tspan>
<tspan x="10" y="6170">  │   ├── camelcase@3.0.0 </tspan>
<tspan x="10" y="6186">  │   ├─┬ cliui@3.2.0 </tspan>
<tspan x="10" y="6202">  │   │ └── wrap-ansi@2.1.0 </tspan>
<tspan x="10" y="6218">  │   ├── decamelize@1.2.0 </tspan>
<tspan x="10" y="6234">  │   ├── get-caller-file@1.0.2 </tspan>
<tspan x="10" y="6250">  │   ├─┬ os-locale@1.4.0 </tspan>
<tspan x="10" y="6266">  │   │ └─┬ lcid@1.0.0 </tspan>
<tspan x="10" y="6282">  │   │   └── invert-kv@1.0.0 </tspan>
<tspan x="10" y="6298">  │   ├─┬ read-pkg-up@1.0.1 </tspan>
<tspan x="10" y="6314">  │   │ ├─┬ find-up@1.1.2 </tspan>
<tspan x="10" y="6330">  │   │ │ ├── path-exists@2.1.0 </tspan>
<tspan x="10" y="6346">  │   │ │ └─┬ pinkie-promise@2.0.1 </tspan>
<tspan x="10" y="6362">  │   │ │   └── pinkie@2.0.4 </tspan>
<tspan x="10" y="6378">  │   │ └─┬ read-pkg@1.1.0 </tspan>
<tspan x="10" y="6394">  │   │   ├─┬ load-json-file@1.1.0 </tspan>
<tspan x="10" y="6410">  │   │   │ ├─┬ parse-json@2.2.0 </tspan>
<tspan x="10" y="6426">  │   │   │ │ └─┬ error-ex@1.3.1 </tspan>
<tspan x="10" y="6442">  │   │   │ │   └── is-arrayish@0.2.1 </tspan>
<tspan x="10" y="6458">  │   │   │ └── pify@2.3.0 </tspan>
<tspan x="10" y="6474">  │   │   ├─┬ normalize-package-data@2.3.8 </tspan>
<tspan x="10" y="6490">  │   │   │ ├── hosted-git-info@2.4.2 </tspan>
<tspan x="10" y="6506">  │   │   │ ├─┬ is-builtin-module@1.0.0 </tspan>
<tspan x="10" y="6522">  │   │   │ │ └── builtin-modules@1.1.1 </tspan>
<tspan x="10" y="6538">  │   │   │ ├── semver@5.3.0 </tspan>
<tspan x="10" y="6554">  │   │   │ └─┬ validate-npm-package-license@3.0.1 </tspan>
<tspan x="10" y="6570">  │   │   │   ├─┬ spdx-correct@1.0.2 </tspan>
<tspan x="10" y="6586">  │   │   │   │ └── spdx-license-ids@1.2.2 </tspan>
<tspan x="10" y="6602">  │   │   │   └── spdx-expression-parse@1.0.4 </tspan>
<tspan x="10" y="6618">  │   │   └── path-type@1.1.0 </tspan>
<tspan x="10" y="6634">  │   ├── require-directory@2.1.1 </tspan>
<tspan x="10" y="6650">  │   ├── require-main-filename@1.0.1 </tspan>
<tspan x="10" y="6666">  │   ├── set-blocking@2.0.0 </tspan>
<tspan x="10" y="6682">  │   ├── which-module@1.0.0 </tspan>
<tspan x="10" y="6698">  │   ├── y18n@3.2.1 </tspan>
<tspan x="10" y="6714">  │   └── yargs-parser@4.2.1 </tspan>
<tspan x="10" y="6730">  ├─┬ through2@2.0.3 </tspan>
<tspan x="10" y="6746">  │ ├─┬ readable-stream@2.2.9 </tspan>
<tspan x="10" y="6762">  │ │ ├── buffer-shims@1.0.0 </tspan>
<tspan x="10" y="6778">  │ │ ├── core-util-is@1.0.2 </tspan>
<tspan x="10" y="6794">  │ │ ├── process-nextick-args@1.0.7 </tspan>
<tspan x="10" y="6810">  │ │ ├── string_decoder@1.0.0 </tspan>
<tspan x="10" y="6826">  │ │ └── util-deprecate@1.0.2 </tspan>
<tspan x="10" y="6842">  │ └── xtend@4.0.1 </tspan>
<tspan x="10" y="6858">  └─┬ vinyl@2.0.2 </tspan>
<tspan x="10" y="6874">    ├── clone@1.0.2 </tspan>
<tspan x="10" y="6890">    ├── clone-buffer@1.0.0 </tspan>
<tspan x="10" y="6906">    ├── clone-stats@1.0.0 </tspan>
<tspan x="10" y="6922">    ├── cloneable-readable@1.0.0 </tspan>
<tspan x="10" y="6938">    ├── is-stream@1.1.0 </tspan>
<tspan x="10" y="6954">    ├── remove-trailing-separator@1.0.1 </tspan>
<tspan x="10" y="6970">    └── replace-ext@1.0.0</tspan>
</text>
</svg>
